<?xml version="1.0" encoding="iso-8859-1"?>
<!-- Generator: Adobe Illustrator 19.0.0, SVG Export Plug-In . SVG Version: 6.00 Build 0)  -->
<svg version="1.1" id="Layer_1" xmlns="http://www.w3.org/2000/svg" xmlns:xlink="http://www.w3.org/1999/xlink" x="0px" y="0px"
	 viewBox="0 0 647.035 220.276" style="enable-background:new 0 0 647.035 220.276;" xml:space="preserve">
<g>
	<path style="fill:#847E65;" d="M507.477,149.07c0,11.415-0.101,22.831,0.069,34.243c0.044,2.937-0.606,6.749,2.781,8.242
		c3.561,1.569,7.029-0.005,9.969-2.343c6.853-5.449,10.367-13.249,14.783-20.508c6.113-10.048,4.163-21.556,6.944-32.155
		c6.509-24.805,19.172-44.749,44.451-53.857c15.464-5.572,28.055,0.244,30.63,13.361c2.189,11.153,0.796,22.02-4.419,32.074
		c-9.927,19.136-26.469,29.793-46.787,35.295c-0.815,0.221-1.506,0.262-1.876,1.283c-4.906,13.536,3.286,24.816,17.551,23.973
		c22.261-1.316,36.534-14.456,47.29-32.471c6.215-10.41,10.433-21.573,10.945-33.881c0.041-0.994,0.029-2.157,1.451-2.197
		c2.374-0.067,4.029,1.129,4.755,3.323c1.934,5.848,0.659,11.74-0.091,17.573c-3.672,28.55-28.88,55.266-57.03,60.133
		c-18.001,3.112-36.784-0.135-45.036-21.416c-0.142-0.366-0.441-0.671-0.667-1.005c-0.377,0.537-0.809,1.044-1.122,1.616
		c-5.447,9.937-12.195,18.738-23.306,22.605c-19.122,6.654-33.332-2.952-36.85-24.742c-0.992-6.148-1.241-12.415-1.838-18.627
		c-0.062-0.646-0.171-1.288-0.258-1.932c-0.359,0.605-0.804,1.176-1.065,1.82c-6.046,14.923-13.984,28.266-29.495,35.255
		c-12.775,5.756-26.309,3.005-35.677-7.366c-1.887-2.089-2.397-0.037-3.095,0.791c-12.42,14.732-28.661,20.145-47.293,18.645
		c-10.897-0.877-16.85-8.991-21.704-17.715c-5.644-10.144-8.623-21.248-10.939-32.546c-0.206-1.006-0.591-1.976-0.892-2.963
		c-0.406,0.986-0.891,1.947-1.206,2.961c-13.336,42.901-54.291,50.374-83.595,41.899c-8.923-2.581-12.229-10.461-14.965-18.429
		c-1.374-4-2.628-8.041-3.936-12.064c-1.514,3.686-2.824,7.472-4.575,11.042c-11.38,23.201-40.567,28.587-55.135,9.534
		c-5.223-6.831-5.648-3.717-8.372,1.03c-11.294,19.683-28.311,30.2-51.174,30.718c-6.336,0.144-10.055-3.92-12.787-8.959
		c-7.003-12.917-7.845-27.241-8.945-41.428c-0.998-12.869-1.467-25.779-2.259-38.665c-0.076-1.235-0.793-2.43-1.212-3.644
		c-0.918,0.88-2.085,1.611-2.716,2.663c-7.262,12.095-10.116,25.834-14.34,39.048c-4.589,14.356-10.238,28.172-18.871,40.63
		c-6.513,9.398-22.383,11.176-30.992,3.467c-1.981-1.774-2.827-4.05-3.057-6.63c-3.65-40.983-7.361-81.962-10.9-122.955
		c-0.587-6.793-0.721-13.659-0.549-20.478c0.301-11.969,5.106-15.447,16.945-13.857c11.029,1.481,17.422,8.172,22.563,17.279
		c13.081,23.173,17.787,48.03,16.009,74.372c-0.375,5.562-0.187,11.162-0.224,16.745c-0.005,0.675,0.203,1.351,0.313,2.027
		c0.221-0.602,0.474-1.195,0.659-1.808c3.167-10.53,6.387-21.054,11.494-30.844c4.992-9.57,12.206-16.205,23.787-15.526
		c11.145,0.654,16.222,8.849,19.719,17.841c7.515,19.324,9.4,39.963,13.165,60.155c0.122,0.654,0.192,1.323,0.367,1.963
		c0.909,3.335-0.174,8.385,3.673,9.385c3.902,1.014,6.292-3.413,8.632-6.208c8.247-9.854,15.003-20.819,19.239-32.832
		c2.36-6.693,1.092-14.513,3.067-21.634c6.638-23.936,18.629-44.432,38.472-59.857c3.108-2.416,6.643-4.05,10.595-4.809
		c3.001-0.576,4.782,0.67,6.023,3.177c0.387,0.781,0.755,1.572,1.132,2.359c0.432-0.803,0.795-1.653,1.308-2.401
		c5.696-8.319,14.305-7.649,22.598-6.78c15.978,1.675,26.33,10.365,30.249,26.133c5.924,23.833,11.59,47.73,17.643,71.529
		c2.613,10.273,8.191,12.088,16.491,5.347c13.849-11.249,19.834-26.908,21.718-43.888c1.164-10.49-0.297-21.255-0.348-31.898
		c-0.116-24.5-0.023-49.012,3.458-73.327c2.022-14.126,6.384-19.271,15.821-20.159c15.647-1.473,26.656,4.571,31.15,17.248
		c5.188,14.635,2.873,29.504-1.017,43.604c-10.06,36.469-6.358,72.414,1.785,108.388c1.344,5.939,2.86,12.891,9.863,14.47
		c7.163,1.616,11.97-3.584,16.527-8.402c2.921-3.089,3.54-6.093,2.59-10.492c-6.72-31.097-6.685-62.697-6.141-94.292
		c0.343-19.91,0.79-39.859,5.011-59.422c3.872-17.943,9.953-20.954,28.592-12.102c14.029,6.663,17.719,20.743,18.596,34.938
		c1.985,32.139-3.134,63.582-12.797,94.056c-4.605,14.522-6.068,28.449-2.36,43.022c1.948,7.655,4.818,9.035,11.944,5.537
		c10.69-5.248,16.153-15.23,21.223-25.142c7.148-13.974,11.907-28.76,11.834-44.73c-0.03-6.486,3.421-9.692,9.581-11.062
		c14.181-3.154,15.864-2.186,16.338,12.412c0.381,11.733,0.077,23.489,0.077,35.235C507.446,149.07,507.461,149.07,507.477,149.07z
		 M219.067,121.82c0.044-12.615-1.267-23.011-3.177-33.345c-0.086-0.468-0.319-0.908-0.484-1.362
		c-0.428,0.317-0.948,0.562-1.272,0.963c-11.104,13.719-20.853,28.276-27.45,44.756c-6.032,15.069-9.232,30.484-4.545,46.546
		c2.003,6.863,7.264,8.468,13.191,4.535c3.51-2.329,6.448-5.274,8.908-8.665C216.283,158.648,218.66,139.454,219.067,121.82z
		 M600.158,100.192c-0.395-3.072,0.375-5.949-2.393-6.932c-2.814-0.999-4.583,1.263-6.234,3.161
		c-0.597,0.687-1.084,1.476-1.576,2.247c-10.429,16.316-18.201,33.832-23.62,52.406c-0.175,0.6-0.145,1.261-0.211,1.893
		c0.607-0.213,1.257-0.348,1.816-0.652C588.922,140.902,597.329,121.867,600.158,100.192z M433.738,74.477
		c0,11.319-0.004,22.638,0.013,33.956c0.001,0.537,0.197,1.073,0.303,1.609c0.256-0.479,0.651-0.931,0.748-1.44
		c1.495-7.834,3.375-15.624,4.327-23.526c2.031-16.852,3.66-33.767,1.627-50.758c-0.255-2.129-0.501-5.455-2.909-5.487
		c-2.465-0.033-2.109,3.308-2.395,5.269C433.501,47.498,434.168,61.006,433.738,74.477z M364.058,45.128
		c0.073,0,0.145,0,0.218,0.001c0,5.402-0.005,10.803,0.011,16.205c0.001,0.402,0.155,0.803,0.238,1.204
		c0.233-0.277,0.586-0.518,0.682-0.837c3.265-10.811,4.235-21.825,2.795-33.031c-0.17-1.323-0.61-2.92-2.287-2.762
		c-1.577,0.148-1.575,1.902-1.6,3.018C363.991,34.323,364.058,39.726,364.058,45.128z"/>
	<path style="fill:#847E65;" d="M506.556,85.944c-0.463,5.971-5.501,7.127-10.917,7.255c-7.404,0.175-14.577-7.059-13.918-14.666
		c0.644-7.434,7.155-6.497,12.174-6.758C500.937,71.41,506.519,77.477,506.556,85.944z"/>
</g>
</svg>
