<?xml version="1.0" encoding="iso-8859-1"?>
<!-- Generator: Adobe Illustrator 19.0.0, SVG Export Plug-In . SVG Version: 6.00 Build 0)  -->
<svg version="1.1" id="Layer_1" xmlns="http://www.w3.org/2000/svg" xmlns:xlink="http://www.w3.org/1999/xlink" x="0px" y="0px"
	 viewBox="0 0 335.399 335.221" style="enable-background:new 0 0 335.399 335.221;" xml:space="preserve">
<g id="XMLID_2276_">
	<g id="XMLID_28_">
		<g id="XMLID_16_">
			<path id="XMLID_17_" style="fill:#847E65;" d="M329.978,173.967C330.806,165.44,329.385,180.94,329.978,173.967L329.978,173.967z
				"/>
			<path id="XMLID_18_" style="fill:#847E65;" d="M325.277,113.169c-2.951-9.688-6.773-19.166-11.796-28.561
				c-6.265-9.618-13.708-18.615-22.622-28.224c-4.898-5.104-10.2-10.706-13.485-13.493c-0.73-0.648-1.597-1.317-2.468-1.987
				c-0.434-0.336-0.869-0.673-1.294-1.002c-0.437-0.314-0.859-0.626-1.249-0.935c-1.618-1.305-3.218-2.595-4.806-3.876
				c-1.636-1.219-3.26-2.43-4.88-3.637c-1.601-1.238-3.302-2.321-4.994-3.424c-1.702-1.086-3.379-2.225-5.191-3.162
				c-11.855-7.433-24.169-13.33-37.364-17.397c-13.167-4.09-27.148-6.734-42.261-7.09c-7.393-0.699-15.765-0.364-23.791,0.406
				c-2.003,0.252-3.99,0.501-5.943,0.747c-1.954,0.237-3.846,0.66-5.702,0.972c-3.719,0.597-7.162,1.504-10.288,2.21
				c-0.515,0.119-1.039,0.225-1.568,0.324c-0.524,0.12-1.051,0.24-1.578,0.36c-1.056,0.237-2.114,0.474-3.134,0.765
				c-10.424,3.017-20.317,6.976-29.88,11.944c-9.556,4.976-18.792,10.967-27.736,18.264c-8.71,6.52-15.82,11.813-22.302,18.673
				c-8.057,8.705-13.716,18.121-19.276,28.578c-0.726,1.354-1.456,2.718-2.187,4.082c-0.684,1.387-1.368,2.775-2.048,4.153
				c-0.663,1.385-1.376,2.734-1.964,4.117c-0.584,1.385-1.148,2.755-1.678,4.101c-1.117,2.68-1.851,5.288-2.638,7.795
				c-0.373,1.261-0.82,2.477-1.149,3.736c-0.348,1.252-0.715,2.5-1.117,3.756c-0.419,1.313-0.869,2.56-1.218,3.788
				c-0.339,1.23-0.666,2.414-0.981,3.558c-0.316,1.143-0.621,2.246-0.917,3.315c-0.3,1.067-0.494,2.125-0.737,3.14
				c-0.457,2.037-0.888,3.959-1.305,5.817c-0.333,1.874-0.655,3.682-0.973,5.473c-0.158,0.896-0.315,1.787-0.473,2.68
				c-0.117,0.9-0.234,1.801-0.353,2.711c-0.237,1.82-0.479,3.672-0.732,5.606c-0.29,3.896-0.784,8.163-0.846,13.063
				c-0.753,10.421-0.3,21.302,1.35,32.152c1.641,10.853,4.472,21.656,8.226,32.022c7.764,21.507,20.127,41.178,35.202,57.595
				c0.684,0.662,1.37,1.326,2.059,1.992c0.688,0.666,1.431,1.28,2.146,1.926c1.442,1.276,2.891,2.558,4.345,3.846
				c3.045,2.415,5.997,4.97,9.197,7.21l2.358,1.727c0.78,0.582,1.569,1.149,2.391,1.672c1.621,1.069,3.239,2.137,4.851,3.2
				c1.609,1.063,3.302,1.984,4.936,2.969c1.641,0.974,3.273,1.939,4.961,2.777c1.668,0.842,3.33,1.702,4.991,2.58
				c1.695,0.813,3.398,1.63,5.112,2.452c0.854,0.414,1.711,0.83,2.57,1.247c0.876,0.381,1.754,0.764,2.636,1.148
				c1.767,0.757,3.519,1.583,5.328,2.309c7.227,2.93,14.879,5.451,23.036,7.31c8.05,1.845,16.818,3.226,25.137,3.977
				c4.18,0.248,8.234,0.587,11.981,0.546c1.889,0.003,3.666,0.092,5.442,0.024c1.735-0.066,3.385-0.128,4.933-0.186
				c0.994-0.042,1.978-0.064,2.951-0.121c0.971-0.084,1.933-0.168,2.887-0.251c1.906-0.168,3.779-0.332,5.629-0.495
				c1.84-0.249,3.658-0.495,5.462-0.739c0.901-0.123,1.8-0.246,2.696-0.369c0.889-0.166,1.776-0.332,2.663-0.497
				c1.771-0.332,3.539-0.664,5.313-0.997c1.754-0.422,3.515-0.846,5.29-1.273c0.887-0.216,1.777-0.434,2.673-0.652
				c0.889-0.245,1.774-0.524,2.669-0.788c1.786-0.541,3.596-1.089,5.44-1.647c7.629-2.33,15.251-5.276,22.66-8.778
				c7.357-3.61,14.474-7.765,21.205-12.313c6.691-4.612,12.931-9.666,18.73-14.85c2.809-2.689,5.655-5.258,8.212-8.008
				c2.669-2.645,5.065-5.435,7.467-8.098c1.393-1.546,2.57-3.64,3.779-5.115c10.788-13.759,18.154-27.565,23.307-42.442
				c0.687-1.817,1.231-3.67,1.781-5.508c0.533-1.843,1.16-3.643,1.612-5.487c0.466-1.838,0.93-3.669,1.392-5.493l0.349-1.365
				l0.282-1.38l0.566-2.752c0.836-3.648,1.346-7.342,1.962-11.017c0.315-1.836,0.455-3.7,0.7-5.551
				c0.21-1.855,0.494-3.71,0.591-5.576c-0.1-2.37-0.173-4.54-0.203-7.325c0.069-3.754,0.561-9.184-0.773-7.416
				c-0.292,4.619,0.498-0.839,0.426,2.124c-0.23,1.989-0.734,0.715-0.319,3.161c-0.692,2.083-0.399,1.668-0.037,1.602
				c0.331-0.081,0.878,0.253,0.264,3.64c-1.039,3.995-1.674,2.989-1.52-2.113c-0.273,2.451-0.525,4.894-0.755,7.323
				c-0.302,2.438-0.685,4.877-0.994,7.289c-0.773,4.807-1.575,9.53-2.63,14.049c-0.251,1.133-0.473,2.263-0.734,3.373
				c-0.29,1.103-0.577,2.196-0.861,3.279c-0.573,2.164-1.065,4.307-1.739,6.339c-0.638,2.043-1.208,4.056-1.839,5.983
				c-0.674,1.914-1.326,3.769-1.956,5.557c-0.497,1.533-1.132,2.984-1.701,4.448c-0.581,1.462-1.156,2.909-1.728,4.348
				c-0.651,1.406-1.298,2.803-1.944,4.199c-0.671,1.385-1.28,2.804-2.063,4.136c-0.861,1.535-2.25,3.861-3.494,5.844
				c-1.322,1.934-2.439,3.568-2.61,3.818c-0.962,1.5-0.93,2.415-2.287,3.465c-0.416,0.33-0.582,1.226-0.404,0.982
				c-12.847,17.976-26.935,30.919-39.378,39.572c-7.098,5.36-19.441,12.51-32.684,17.889c-1.672,0.659-3.364,1.327-5.069,1.999
				c-1.697,0.694-3.474,1.207-5.22,1.825c-3.485,1.269-7.11,2.177-10.664,3.214c-1.792,0.464-3.598,0.843-5.378,1.266
				c-0.891,0.206-1.779,0.411-2.663,0.615c-0.886,0.191-1.779,0.326-2.661,0.491c-1.766,0.316-3.511,0.627-5.228,0.934
				c-1.723,0.265-3.43,0.448-5.096,0.67c-3.666,0.684-7.388,0.967-11.116,1.406c-1.867,0.174-3.747,0.235-5.629,0.358l-2.831,0.161
				l-0.65,0.035l-0.721,0.004L165.478,332c-1.927,0.007-3.859,0.014-5.8,0.021c-1.917-0.046-3.81-0.173-5.733-0.258
				c-0.96-0.048-1.922-0.096-2.886-0.144c-0.966-0.097-1.934-0.194-2.905-0.292c-1.941-0.21-3.9-0.384-5.86-0.632
				c-7.829-1.096-15.764-2.796-23.789-5.172c-7.994-2.475-16.043-5.684-24.057-9.734c-2.085-1.006-4.212-1.916-6.25-2.985
				c-2.039-1.075-4.073-2.148-6.107-3.221c-1.983-1.172-3.967-2.344-5.957-3.52c-1.985-1.19-3.883-2.527-5.845-3.8
				c-7.719-5.268-15.203-11.345-22.391-18.64c-7.031-7.748-12.369-15.32-17.113-23.066c-4.674-7.801-8.738-15.802-12.76-24.908
				c-3.585-8.996-7.109-19.107-9.563-29.73c-0.291-1.272-0.584-2.555-0.878-3.842c-0.298-1.287-0.478-2.602-0.724-3.903
				c-0.462-2.607-0.957-5.202-1.226-7.774c-0.739-5.116-1.053-10.049-1.347-14.341c-0.022-2.589-0.044-5.182-0.066-7.777
				l0.352-7.958c0.216-2.603,0.497-5.169,0.742-7.748c0.3-2.577,0.751-5.16,1.117-7.732c1.732-10.267,4.439-20.285,7.898-29.843
				c3.835-10.572,7.88-19.101,12.234-26.979c4.399-7.848,9.081-15.115,15.205-22.517c-0.011-0.303,0.315-0.86,1.145-1.739
				c1.378-1.798,2.606-3.489,3.759-5.128c1.208-1.595,2.359-3.115,3.503-4.625c1.113-1.549,2.324-2.995,3.596-4.496
				c1.288-1.483,2.566-3.101,4.157-4.625c18.256-15.927,39.681-27.523,61.386-33.959c21.716-6.503,43.476-8.133,62.873-6.409
				c21.353,1.809,41.506,8.079,59.589,18.029c9.131,5.028,17.823,11.047,26.146,17.931c8.324,6.892,16.286,14.646,23.982,23.329
				c0.254,0.451,0.582,0.949,0.962,1.494c0.358,0.563,0.771,1.17,1.227,1.811c0.912,1.282,1.997,2.701,3.159,4.181
				c1.102,1.524,2.26,3.125,3.401,4.702c1.171,1.558,2.201,3.178,3.126,4.686c1.025,1.32,2.093,2.615,3.09,3.959
				c0.972,1.364,1.944,2.729,2.918,4.096l1.46,2.068l1.365,2.138c0.912,1.437,1.829,2.881,2.752,4.335
				c0.846,1.502,1.698,3.014,2.558,4.541c0.428,0.768,0.857,1.54,1.289,2.316c0.414,0.785,0.789,1.592,1.188,2.396
				c0.782,1.62,1.574,3.258,2.375,4.918c0.73,1.692,1.432,3.424,2.156,5.183c3.219,9.97,5.339,19.456,7.011,27.574
				c0.341,2.515,0.694,5.006,1.047,7.322c0.246,2.327,0.518,4.478,0.84,6.302c0.057,0.628,0.113,1.251,0.168,1.862
				c0.033,0.613,0.065,1.214,0.096,1.797c0.065,1.165,0.146,2.255,0.253,3.214c0.214,1.916,0.534,3.308,1.053,3.716
				c-0.067-9.885-1.065-19.162-2.745-28.235l-0.668-3.395c-0.221-1.132-0.431-2.265-0.733-3.381
				c-0.556-2.24-1.112-4.484-1.673-6.742c-0.665-2.228-1.334-4.469-2.009-6.731C326.906,117.678,326.038,115.456,325.277,113.169z
				 M104.282,322.12c-3.055-1.496,1.21-0.26,3.127,0.716C106.815,323.501,104.758,321.77,104.282,322.12z M255.809,307.968
				c-0.66,0.223-1.644,0.796-2.771,1.48c-1.143,0.658-2.441,1.405-3.648,2.101c-0.147-0.88,2.469-1.396,2.483-1.98
				C252.776,309.57,256.174,306.79,255.809,307.968z M241.789,315.099c2.256-1.459,4.802-1.601,5.55-2.924
				c2.197-0.986,0.599,0.243-1.47,1.442C243.766,314.755,241.238,315.909,241.789,315.099z M231.367,319.964
				c1.964-1.298,8.222-4.098,7.734-3.219C236.645,318.141,234.226,319.018,231.367,319.964z M229.514,320.951
				c-2.23,0.962-3.758,1.441-4.955,1.697C224.256,322.346,230.737,319.691,229.514,320.951z M330.929,182.333
				c0.581,0.202-0.174,3.51-0.38,4.134c-0.301-0.11-0.162-0.988-0.04-1.913C330.645,183.629,330.87,182.648,330.929,182.333z
				 M303.709,260.262c-1.533,1.466-0.751,1.093-2.421,3.404C300.612,263.81,303.574,258.963,303.709,260.262z M330.418,187.501
				c-0.243,2.261-0.613,3.266-1.108,3.008C329.685,189.58,329.867,186.717,330.418,187.501z M298.462,266.765
				c0.168,0.164-0.64,1.116-1.097,1.784l-1.933,2.461C294.916,270.823,297.629,268.038,298.462,266.765z M208.473,327.161
				c-1.967,0.129-1.019-0.172,0.664-0.673c1.678-0.527,4.116-1.187,5.219-1.487C213.861,325.945,208.683,326.781,208.473,327.161z
				 M329.654,191.605c-0.198,0.463-0.305,1.417-0.51,2.142c-0.198,0.726-0.407,1.236-0.663,0.833
				C328.952,193.674,329.1,190.805,329.654,191.605z M329.655,183.264c0.277,0.493,0.189,1.384-0.082,2.345
				c-0.266,0.961-0.621,1.985-0.716,2.752C328.32,187.35,329.595,184.794,329.655,183.264z"/>
		</g>
	</g>
</g>
</svg>
