<?xml version="1.0" encoding="iso-8859-1"?>
<!-- Generator: Adobe Illustrator 19.0.0, SVG Export Plug-In . SVG Version: 6.00 Build 0)  -->
<svg version="1.1" id="Layer_1" xmlns="http://www.w3.org/2000/svg" xmlns:xlink="http://www.w3.org/1999/xlink" x="0px" y="0px"
	 viewBox="0 0 647.9 192.361" style="enable-background:new 0 0 647.9 192.361;" xml:space="preserve">
<g>
	<path style="fill:#616B5F;" d="M212.9,133.583c0-10.415,0.04-20.831-0.046-31.246c-0.012-1.454,0.471-3.62-1.489-4.085
		c-2.003-0.475-2.779,1.595-3.511,2.991c-7.217,13.777-9.306,28.876-11.335,44.01c-0.994,7.42-2.149,14.834-3.643,22.166
		c-1.176,5.773-4.765,8.524-11.045,7.82c-6.36-0.712-6.878-5.009-6.962-9.852c-0.162-9.414-0.301-18.828-0.464-28.242
		c-0.01-0.555-0.143-1.109-0.219-1.663c-0.447,0.406-0.989,0.745-1.328,1.227c-5.664,8.036-13.299,13.201-22.814,15.54
		c-1.477,0.363-2.283,1.136-2.953,2.359c-2.575,4.706-5.755,8.977-9.553,12.759c-7.266,7.235-15.49,11.192-25.946,7.463
		c-11.34-4.045-17.61-12.335-20.141-23.814c-0.188-0.854-0.48-1.684-0.724-2.525c-0.602,0.662-1.26,1.283-1.799,1.993
		c-15.795,20.821-35.014,28.429-57.218,21.841c-17.128-5.082-26.52-17.756-29.912-34.646c-3.502-17.435-1.945-34.756,5.14-51.186
		c8.433-19.556,31.693-25.462,51.93-13.588c6.118,3.589,11.15,8.192,13.794,14.931c1.038,2.647,1.525,5.703-1.297,7.456
		c-2.936,1.824-4.224-1.215-5.733-2.908c-4.809-5.397-9.145-5.077-11.472,1.755c-6.467,18.982-8.187,38.631-5.132,58.393
		c1.52,9.836,8.932,12.561,17.553,6.858c13.477-8.915,23.106-20.915,26.81-37.074c2.825-12.326,6.017-24.822,14.369-34.496
		c5.82-6.74,12.851-13.468,22.638-14.282c15.131-1.259,24.099,8.078,26.102,26.307c1.341,12.2,0.906,24.275-2.132,36.211
		c-0.149,0.586-0.042,1.238-0.054,1.859c0.537-0.203,1.107-0.345,1.605-0.617c13.607-7.435,20.02-19.011,21.263-34.396
		c1.048-12.977,6.244-17.51,17.004-17.408c2.83,0.027,3.872,0.944,3.358,3.913c-0.722,4.171-1.093,8.407-1.51,12.625
		c-0.099,1.002,0.217,2.045,0.343,3.069c0.541-0.807,1.128-1.586,1.615-2.424c9.782-16.86,29.31-20.031,42.322-6.758
		c7.051,7.192,6.666,16.777,7.564,25.789c1.556,15.615,0.99,31.3,0.909,46.965c-0.015,2.81-0.808,6.556,2.286,7.883
		c2.91,1.248,5.501-1.365,7.617-3.305c13.82-12.671,21.503-28.693,23.294-47.07c1.833-18.806,2.263-37.747,3.396-56.624
		c0.109-1.821-0.375-2.357-2.146-2.715c-8.314-1.683-16.588-3.569-24.88-5.364c-3.701-0.801-5.371-3.25-5.887-6.837
		c-0.88-6.108-0.178-12.134,0.734-18.158c0.449-2.962,2.588-3.535,5.124-3.651c10.403-0.476,20.802-1.029,31.207-1.458
		c1.633-0.067,2.285-0.575,2.601-2.212c1.544-8.012,3.17-16.009,4.902-23.982c0.469-2.159,1.019-4.872,3.643-5.16
		c2.652-0.291,3.665,2.331,4.612,4.293c3.555,7.37,3.426,15.19,2.237,23.017c-0.394,2.591,0.271,3.002,2.709,2.89
		c6.57-0.303,13.164-0.569,19.731-0.349c7.984,0.268,12.213,4.643,12.587,12.579c0.172,3.653,0.039,7.331-0.147,10.989
		c-0.268,5.27-3.057,8.645-8.111,10.164c-9.348,2.809-19.026,3.146-28.659,3.772c-1.646,0.107-2.548,0.408-2.63,2.375
		c-1.076,25.562-1.773,51.133-1.486,76.717c0.143,12.708,3.15,14.517,14.309,8.627c10.724-5.66,20.376-13.243,26.008-23.85
		c4.275-8.053,5.443-17.733,10.053-25.938c6.517-11.599,14.068-22.364,25.726-29.322c3.651-2.179,8.48-5.818,11.446,1.402
		c0.034,0.083,0.69,0.085,0.777-0.052c6.288-9.961,15.676-7.527,24.449-5.583c10.645,2.359,16.641,9.884,19.203,20.227
		c4.744,19.15,9.308,38.346,14.142,57.473c2.203,8.716,6.904,10.273,13.861,4.375c10.513-8.913,15.797-20.803,16.833-34.293
		c1.008-13.141,2.034-26.213,9.219-37.67c10.735-17.119,36.164-19.927,53.623-6.196c4.663,3.667,8.614,7.896,10.066,13.872
		c0.56,2.303,0.374,4.695-1.978,5.917c-2.366,1.229-3.611-0.833-4.898-2.329c-5.607-6.512-10.092-5.831-12.734,2.41
		c-5.572,17.38-6.869,35.362-5.176,53.372c1.317,14.016,9.912,17.425,21.027,8.702c18.837-14.783,28.375-34.254,28.508-58.405
		c0.055-9.897,1.105-19.793,1.844-29.68c0.141-1.881-0.44-2.333-2.169-2.685c-8.312-1.693-16.587-3.572-24.877-5.374
		c-3.698-0.804-5.361-3.256-5.862-6.853c-0.851-6.109-0.186-12.139,0.735-18.162c0.451-2.952,2.626-3.505,5.156-3.621
		c10.32-0.472,20.635-1.036,30.958-1.436c1.864-0.072,2.549-0.677,2.895-2.494c1.495-7.851,3.104-15.682,4.789-23.494
		c0.485-2.246,0.968-5.099,3.702-5.378c2.734-0.279,3.763,2.479,4.718,4.524c3.415,7.318,3.295,15.061,2.103,22.8
		c-0.409,2.659,0.353,2.97,2.734,2.861c6.488-0.297,12.997-0.566,19.483-0.366c8.237,0.254,12.493,4.656,12.855,12.866
		c0.154,3.488-0.001,6.997-0.153,10.491c-0.24,5.499-3.123,8.94-8.39,10.48c-9.284,2.714-18.871,3.079-28.422,3.689
		c-1.657,0.106-2.531,0.437-2.614,2.388c-1.092,25.562-1.761,51.134-1.471,76.718c0.144,12.721,3.299,14.772,14.275,8.555
		c15.716-8.901,28.162-20.889,33.417-38.981c0.654-2.252-1.005-6.644,2.038-6.443c3.804,0.251,4.091,4.86,4.164,8.098
		c0.301,13.327-5.295,24.399-14.012,34.007c-10.498,11.571-22.245,21.201-38.717,22.58c-8.757,0.733-13.802-2.411-17.094-10.622
		c-2.772-6.912-3.488-14.191-3.607-21.563c-0.011-0.693-0.229-1.382-0.351-2.073c-0.429,0.578-0.907,1.126-1.279,1.739
		c-9.125,15.029-20.524,27.565-38.405,31.691c-23.613,5.449-44.799-6.655-52.913-29.539c-0.263-0.741-0.725-1.411-1.094-2.115
		c-0.348,0.637-0.738,1.255-1.036,1.915c-11.359,25.136-35.813,36.907-62.805,30.56c-9.38-2.206-13.321-8.916-15.977-17.106
		c-0.947-2.92-1.891-5.841-2.836-8.762c-1.119,2.758-2.112,5.576-3.377,8.266c-8.431,17.927-29.76,23.313-43.092,10.892
		c-4.155-3.871-6.463-8.816-7.886-14.233c-0.22-0.836-0.598-1.631-0.903-2.445c-0.65,0.619-1.328,1.213-1.947,1.861
		c-9.328,9.769-19.458,18.214-33.253,20.935c-12.913,2.546-19.226-1.205-23.036-13.896c-0.23-0.767-0.621-1.487-0.937-2.229
		c-0.395,0.719-0.836,1.418-1.179,2.161c-5.997,12.993-13.667,24.502-27.539,30.285c-19.595,8.169-41.23-6.021-41.47-27.188
		c-0.11-9.748-0.019-19.499-0.019-29.248C213.05,133.583,212.975,133.583,212.9,133.583z M392.197,109.111
		c0.026-8.364-1.112-16.61-2.508-24.829c-0.079-0.465-0.316-0.903-0.479-1.354c-0.427,0.337-0.935,0.609-1.269,1.021
		c-8.89,10.996-16.683,22.661-22.002,35.858c-4.866,12.074-7.408,24.408-3.886,37.299c1.682,6.156,6.02,7.539,11.218,3.918
		c3.681-2.565,6.553-5.896,8.899-9.688C390.188,138.374,391.946,123.919,392.197,109.111z M123.252,108.102
		c0.197,2.373,0.269,5.809,0.803,9.171c1.309,8.243,2.505,16.607,9.682,22.299c0.681,0.54,1.811,2.144,2.651,0.073
		c6.188-15.255,9.891-30.946,7.537-47.52c-0.686-4.833-3.062-8.838-8.659-9.134c-5.292-0.28-8.225,3.015-9.954,7.572
		C123.294,95.883,123.12,101.46,123.252,108.102z M118.439,165.601c4.907-2.527,8.3-7.463,10.736-12.708
		c0.979-2.107-3.121-2.283-4.787-3.481c-8.428-6.056-12.219-14.643-14.063-24.419c-0.106-0.561-0.314-1.102-0.475-1.652
		c-0.111,0.231-0.302,0.454-0.323,0.693c-1.052,11.783-2.097,23.582,1.486,35.15C112,162.369,113.641,165.185,118.439,165.601z"/>
</g>
</svg>
