<?xml version="1.0" encoding="iso-8859-1"?>
<!-- Generator: Adobe Illustrator 19.0.0, SVG Export Plug-In . SVG Version: 6.00 Build 0)  -->
<svg version="1.1" id="Layer_1" xmlns="http://www.w3.org/2000/svg" xmlns:xlink="http://www.w3.org/1999/xlink" x="0px" y="0px"
	 viewBox="0 0 647.312 209.448" style="enable-background:new 0 0 647.312 209.448;" xml:space="preserve">
<g>
	<path style="fill:#847E65;" d="M506.265,164.234c0.101,8.351,2.34,16.959-1.234,24.981c-6.259,14.048-18.513,18.721-32.699,20.051
		c-0.083,0.008-0.167,0.005-0.25,0.008c-23.26,0.849-25.216-0.639-31.143-23.115c-4.039-15.317-7.032-30.842-9.501-46.477
		c-0.141-0.895-0.425-1.767-0.642-2.65c-0.419,0.78-0.892,1.535-1.248,2.343c-8.727,19.847-20.783,36.512-43.593,40.983
		c-26.144,5.125-55.647-15.157-59.882-41.311c-2.276-14.056,1.522-27.99,4.058-41.824c2.312-12.612,5.116-25.147,5.402-38.049
		c0.137-6.191-6.925-11.899-12.955-10.328c-1.52,0.396-0.782,1.819-0.878,2.756c-2.949,28.64-12.234,54.488-33.118,75.214
		c-1.704,1.691-3.523,3.57-5.664,4.458c-6.433,2.67-8.325,7.9-9.961,14.114c-3.787,14.385-10.72,27.216-21.185,37.992
		c-18.474,19.023-45.501,15.198-58.338-8.209c-5.989-10.919-6.311-22.578-5.021-34.52c0.11-1.022-0.082-2.076-0.134-3.115
		c-0.879,0.423-1.756,0.848-2.636,1.27c-3.672,1.758-7.187,4.32-11.056,5.08c-5.534,1.087-7.078,4.059-8.148,9.182
		c-3.713,17.764-11.745,33.255-26.329,44.682c-19.692,15.429-41.669,11.233-54.528-10.331
		c-9.086-15.237-10.944-32.105-10.995-49.368c-0.003-0.982-0.121-1.964-0.186-2.946c-0.322,0.893-0.717,1.767-0.955,2.682
		c-4.743,18.252-9.79,36.397-20.444,52.323c-7.477,11.177-16.242,14.287-24.76,8.645c-5.499-3.642-8.985-9.175-11.649-15.046
		C3.783,155.478-1.208,125.741,0.243,94.892c0.218-4.639-1.984-10.608,4.25-13.22c6.489-2.719,16.847,0.109,21.691,5.176
		c12.715,13.301,16.09,30.098,17.83,47.466c1.121,11.187,1.868,22.411,2.84,33.613c0.133,1.527-0.072,3.814,1.493,4.197
		c1.932,0.473,2.794-1.789,3.635-3.224c7.384-12.587,10.093-26.705,13.117-40.701c2.234-10.336,4.321-20.704,6.418-31.07
		c0.88-4.35,2.688-7.481,7.836-7.265c4.866,0.205,6.917,2.307,8.074,7.407c6.502,28.682,14.2,57.044,26.083,84.067
		c1.191,2.708,2.239,6.816,5.531,6.723c3.175-0.089,4.203-4.125,5.441-6.875c5.887-13.081,7.44-27.037,8.084-41.164
		c0.067-1.467-1.063-1.981-1.899-2.721c-18.852-16.684-26.401-38.366-27.049-62.767c-0.29-10.906,7.695-15.98,20.371-14.048
		c21.581,3.289,37.276,19.403,42.968,44.141c2.089,9.078,2.531,18.297,2.168,27.567c-0.07,1.795,0.253,2.391,2.207,1.782
		c11.303-3.522,19.9-9.128,22.863-21.991c3.126-13.569,8.511-26.501,17.308-37.637c3.198-4.049,6.916-7.484,12.389-8.19
		c0.367-0.047,0.775-0.287,1.036-0.56c15.57-16.322,39.582-11.268,47.758,10.005c4.734,12.319,5.374,25.15,5.121,38.122
		c-0.017,0.866,0.142,1.735,0.22,2.603c0.74-0.495,1.562-0.902,2.208-1.499c13.882-12.848,20.616-29.624,25.605-47.256
		c1.671-5.904,2.45-12.059,3.643-18.098c0.417-2.111-0.26-3.136-2.486-3.926c-9.43-3.343-15.722-9.467-16.632-20.009
		c-0.71-8.218,1.983-13.298,8.191-15.236c8.156-2.546,15.761,0.254,19.645,7.153c3.215,5.71,4.138,11.954,3.997,18.328
		c-0.067,3.027,1.106,3.67,3.777,3.962c14.312,1.565,28.743,2.669,42.051,8.965c11.04,5.222,16.467,13.713,16.421,26.157
		c-0.083,22.049-3.256,43.857-4.496,65.808c-0.178,3.149-0.17,6.357,0.21,9.482c1.435,11.794,7.699,14.891,18.075,8.957
		c10.994-6.287,16.115-17.208,22.282-27.557c8.88-14.903,5.22-30.142,3.282-45.594c-2.953-23.55-5.531-47.148-8.268-70.726
		c-0.01-0.083-0.016-0.166-0.022-0.249c-0.98-13.267,2.394-16.111,15.551-14.64c23.303,2.607,34.85,17.917,42.472,37.94
		c9.42,24.749,15.484,50.433,21.542,76.126c0.233,0.99,0.709,1.923,1.071,2.882c0.469-0.868,0.981-1.716,1.4-2.608
		c8.343-17.772,21.575-29.789,40.907-34.457c8.625-2.083,17.116-1.665,23.284,5.53c6.262,7.305,3.672,15.673,1.146,23.736
		c-0.247,0.79-0.467,1.706-1.007,2.269c-4.765,4.976-2.208,8.148,2.05,11.966c13.257,11.888,21.265,27.885,31.837,41.888
		c7.628,10.104,18.501,10.894,26.098,0.78c11.796-15.706,16.572-34.298,20.18-53.241c0.317-1.666-0.55-4.659,1.984-4.658
		c2.539,0.001,3.03,2.888,3.145,5.018c1.072,19.897-3.833,38.475-12.9,56.02c-6.773,13.106-15.909,24.286-29.735,30.245
		c-26.407,11.381-52.069,4.225-69.584-18.619c-7.301-9.522-12.913-19.985-17.955-30.805c-0.874-1.875-1.825-3.751-3.017-5.43
		c-1.412-1.988-3.669-2.905-5.944-2.237c-2.049,0.602-1.699,2.888-1.728,4.554C506.203,152.908,506.265,158.572,506.265,164.234z
		 M211.943,143.736c0.181,10.328-0.526,21.462,4.316,31.751c3.355,7.131,8.719,7.947,14.086,2.244
		c9.937-10.558,16.112-23.344,21.247-36.717c0.739-1.925-0.594-1.616-1.594-1.755c-15.691-2.181-28.087-8.99-34.358-24.424
		c-0.147-0.362-0.41-0.678-0.619-1.015c-0.241,0.556-0.606,1.092-0.703,1.673C212.797,124.629,212.178,133.843,211.943,143.736z
		 M261.027,92.499c-0.11-1.596-0.202-4.843-0.583-8.056c-1.095-9.253-5.232-14.469-11.826-15.129
		c-6.646-0.665-12.663,4.172-15.247,12.549c-0.801,2.598-1.248,5.356-1.472,8.072c-1.41,17.1,8.202,31.073,22.654,33.191
		c1.791,0.262,2.573-0.024,3.022-2.036C259.557,112.206,260.7,103.239,261.027,92.499z M539.451,99.142
		c-0.07-7.553-4.315-7.429-8.511-6.121c-13.727,4.279-19.112,15.664-23.02,28.063c-1.156,3.668-3.466,9.209-0.983,10.983
		c2.832,2.024,7.364-1.673,10.605-3.928C528.305,120.652,537.36,111.827,539.451,99.142z M132.186,111.385
		c-0.7-7.944-1.196-17.373-5.123-26.106c-1.061-2.36-2.46-5.441-5.665-4.579c-3.111,0.837-2.66,4.128-2.423,6.62
		c0.905,9.504,4.311,18.218,8.931,26.479c1.234,2.206,2.844,4.203,4.281,6.295C132.186,117.662,132.186,115.229,132.186,111.385z
		 M310.644,31.026c-0.513-2.692-1.025-5.957-1.791-9.163c-0.417-1.742-1.628-2.898-3.647-2.666c-2.004,0.23-2.822,1.636-3.056,3.399
		c-0.589,4.426,1.213,7.942,4.475,10.754c1.023,0.882,2.33,1.435,3.507,2.138C310.278,34.21,310.425,32.932,310.644,31.026z"/>
</g>
</svg>
